<?xml version="1.0" encoding="UTF-8" standalone="no"?>
<!DOCTYPE svg PUBLIC "-//W3C//DTD SVG 1.1//EN"
 "http://www.w3.org/Graphics/SVG/1.1/DTD/svg11.dtd">
<!-- Generated by graphviz version 2.42.4 (0)
 -->
<!-- Title: G Pages: 1 -->
<svg width="1288pt" height="511pt"
 viewBox="0.00 0.00 1287.80 510.80" xmlns="http://www.w3.org/2000/svg" xmlns:xlink="http://www.w3.org/1999/xlink">
<g id="graph0" class="graph" transform="scale(1 1) rotate(0) translate(14.4 496.4)">
<title>G</title>
<polygon fill="white" stroke="transparent" points="-14.4,14.4 -14.4,-496.4 1273.4,-496.4 1273.4,14.4 -14.4,14.4"/>
<g id="clust1" class="cluster">
<title>cluster_policy</title>
<path fill="none" stroke="#bbbbbb" stroke-dasharray="5,2" d="M583,-183C583,-183 794,-183 794,-183 800,-183 806,-189 806,-195 806,-195 806,-462 806,-462 806,-468 800,-474 794,-474 794,-474 583,-474 583,-474 577,-474 571,-468 571,-462 571,-462 571,-195 571,-195 571,-189 577,-183 583,-183"/>
<text text-anchor="middle" x="688.5" y="-458.8" font-family="Times,serif" font-size="14.00">Decision Policy</text>
</g>
<!-- A -->
<g id="node1" class="node">
<title>A</title>
<path fill="#f7f7f7" stroke="#444444" d="M118,-155C118,-155 12,-155 12,-155 6,-155 0,-149 0,-143 0,-143 0,-129 0,-129 0,-123 6,-117 12,-117 12,-117 118,-117 118,-117 124,-117 130,-123 130,-129 130,-129 130,-143 130,-143 130,-149 124,-155 118,-155"/>
<text text-anchor="middle" x="65" y="-139.4" font-family="Arial" font-size="12.00">Attacker / Red Team</text>
<text text-anchor="middle" x="65" y="-126.4" font-family="Arial" font-size="12.00">SSH to Raspberry Pi</text>
</g>
<!-- B -->
<g id="node2" class="node">
<title>B</title>
<path fill="#f7f7f7" stroke="#444444" d="M316,-155C316,-155 200,-155 200,-155 194,-155 188,-149 188,-143 188,-143 188,-129 188,-129 188,-123 194,-117 200,-117 200,-117 316,-117 316,-117 322,-117 328,-123 328,-129 328,-129 328,-143 328,-143 328,-149 322,-155 316,-155"/>
<text text-anchor="middle" x="258" y="-139.4" font-family="Arial" font-size="12.00">Cowrie SSH Honeypot</text>
<text text-anchor="middle" x="258" y="-126.4" font-family="Arial" font-size="12.00">Port 2222</text>
</g>
<!-- A&#45;&gt;B -->
<g id="edge1" class="edge">
<title>A&#45;&gt;B</title>
<path fill="none" stroke="#666666" stroke-width="1.2" d="M130.07,-136C130.07,-136 179.92,-136 179.92,-136"/>
<polygon fill="#666666" stroke="#666666" stroke-width="1.2" points="179.92,-138.8 187.92,-136 179.92,-133.2 179.92,-138.8"/>
</g>
<!-- C -->
<g id="node3" class="node">
<title>C</title>
<path fill="#f7f7f7" stroke="#444444" d="M509,-155C509,-155 398,-155 398,-155 392,-155 386,-149 386,-143 386,-143 386,-129 386,-129 386,-123 392,-117 398,-117 398,-117 509,-117 509,-117 515,-117 521,-123 521,-129 521,-129 521,-143 521,-143 521,-149 515,-155 509,-155"/>
<text text-anchor="middle" x="453.5" y="-139.4" font-family="Arial" font-size="12.00">shell_broker.py</text>
<text text-anchor="middle" x="453.5" y="-126.4" font-family="Arial" font-size="12.00">Intercepts Commands</text>
</g>
<!-- B&#45;&gt;C -->
<g id="edge2" class="edge">
<title>B&#45;&gt;C</title>
<path fill="none" stroke="#666666" stroke-width="1.2" d="M328.03,-136C328.03,-136 377.92,-136 377.92,-136"/>
<polygon fill="#666666" stroke="#666666" stroke-width="1.2" points="377.92,-138.8 385.92,-136 377.92,-133.2 377.92,-138.8"/>
</g>
<!-- D -->
<g id="node4" class="node">
<title>D</title>
<path fill="#f7f7f7" stroke="#444444" d="M745.5,-155C745.5,-155 631.5,-155 631.5,-155 625.5,-155 619.5,-149 619.5,-143 619.5,-143 619.5,-129 619.5,-129 619.5,-123 625.5,-117 631.5,-117 631.5,-117 745.5,-117 745.5,-117 751.5,-117 757.5,-123 757.5,-129 757.5,-129 757.5,-143 757.5,-143 757.5,-149 751.5,-155 745.5,-155"/>
<text text-anchor="middle" x="688.5" y="-139.4" font-family="Arial" font-size="12.00">dispatch.py</text>
<text text-anchor="middle" x="688.5" y="-126.4" font-family="Arial" font-size="12.00">Router / Policy Engine</text>
</g>
<!-- C&#45;&gt;D -->
<g id="edge3" class="edge">
<title>C&#45;&gt;D</title>
<path fill="none" stroke="#666666" stroke-width="1.2" d="M521.16,-136C521.16,-136 611.28,-136 611.28,-136"/>
<polygon fill="#666666" stroke="#666666" stroke-width="1.2" points="611.28,-138.8 619.28,-136 611.28,-133.2 611.28,-138.8"/>
</g>
<!-- T1 -->
<g id="node5" class="node">
<title>T1</title>
<path fill="#f7f7f7" stroke="#444444" d="M1041,-458.5C1041,-458.5 879,-458.5 879,-458.5 873,-458.5 867,-452.5 867,-446.5 867,-446.5 867,-419.5 867,-419.5 867,-413.5 873,-407.5 879,-407.5 879,-407.5 1041,-407.5 1041,-407.5 1047,-407.5 1053,-413.5 1053,-419.5 1053,-419.5 1053,-446.5 1053,-446.5 1053,-452.5 1047,-458.5 1041,-458.5"/>
<text text-anchor="middle" x="960" y="-442.9" font-family="Arial" font-size="12.00">Tier 1</text>
<text text-anchor="middle" x="960" y="-429.9" font-family="Arial" font-size="12.00">telemetry_cache.py</text>
<text text-anchor="middle" x="960" y="-416.9" font-family="Arial" font-size="12.00">Static Ground&#45;Truth Responses</text>
</g>
<!-- D&#45;&gt;T1 -->
<g id="edge4" class="edge">
<title>D&#45;&gt;T1</title>
<path fill="none" stroke="#666666" stroke-width="1.2" d="M757.75,-136.67C792.38,-136.67 827,-136.67 827,-136.67 827,-136.67 827,-419.33 827,-419.33 827,-419.33 858.9,-419.33 858.9,-419.33"/>
<polygon fill="#666666" stroke="#666666" stroke-width="1.2" points="858.9,-422.13 866.9,-419.33 858.9,-416.53 858.9,-422.13"/>
</g>
<!-- T2 -->
<g id="node6" class="node">
<title>T2</title>
<path fill="#f7f7f7" stroke="#444444" d="M1052,-371.5C1052,-371.5 868,-371.5 868,-371.5 862,-371.5 856,-365.5 856,-359.5 856,-359.5 856,-332.5 856,-332.5 856,-326.5 862,-320.5 868,-320.5 868,-320.5 1052,-320.5 1052,-320.5 1058,-320.5 1064,-326.5 1064,-332.5 1064,-332.5 1064,-359.5 1064,-359.5 1064,-365.5 1058,-371.5 1052,-371.5"/>
<text text-anchor="middle" x="960" y="-355.9" font-family="Arial" font-size="12.00">Tier 2</text>
<text text-anchor="middle" x="960" y="-342.9" font-family="Arial" font-size="12.00">node_runtime.py + node_context.py</text>
<text text-anchor="middle" x="960" y="-329.9" font-family="Arial" font-size="12.00">State&#45;Aware Local Runtime</text>
</g>
<!-- D&#45;&gt;T2 -->
<g id="edge5" class="edge">
<title>D&#45;&gt;T2</title>
<path fill="none" stroke="#666666" stroke-width="1.2" d="M757.64,-150.75C808.21,-150.75 868,-150.75 868,-150.75 868,-150.75 868,-312.47 868,-312.47"/>
<polygon fill="#666666" stroke="#666666" stroke-width="1.2" points="865.2,-312.47 868,-320.47 870.8,-312.47 865.2,-312.47"/>
</g>
<!-- T3 -->
<g id="node7" class="node">
<title>T3</title>
<path fill="#f7f7f7" stroke="#444444" d="M1007,-284.5C1007,-284.5 913,-284.5 913,-284.5 907,-284.5 901,-278.5 901,-272.5 901,-272.5 901,-245.5 901,-245.5 901,-239.5 907,-233.5 913,-233.5 913,-233.5 1007,-233.5 1007,-233.5 1013,-233.5 1019,-239.5 1019,-245.5 1019,-245.5 1019,-272.5 1019,-272.5 1019,-278.5 1013,-284.5 1007,-284.5"/>
<text text-anchor="middle" x="960" y="-268.9" font-family="Arial" font-size="12.00">Tier 3</text>
<text text-anchor="middle" x="960" y="-255.9" font-family="Arial" font-size="12.00">edge_inference.py</text>
<text text-anchor="middle" x="960" y="-242.9" font-family="Arial" font-size="12.00">Local Ollama LLM</text>
</g>
<!-- D&#45;&gt;T3 -->
<g id="edge6" class="edge">
<title>D&#45;&gt;T3</title>
<path fill="none" stroke="#666666" stroke-width="1.2" d="M757.61,-152.88C775.58,-152.88 790,-152.88 790,-152.88 790,-152.88 790,-248.25 790,-248.25 790,-248.25 892.54,-248.25 892.54,-248.25"/>
<polygon fill="#666666" stroke="#666666" stroke-width="1.2" points="892.54,-251.05 900.54,-248.25 892.54,-245.45 892.54,-251.05"/>
</g>
<!-- T4 -->
<g id="node8" class="node">
<title>T4</title>
<path fill="#f7f7f7" stroke="#444444" d="M1019,-197.5C1019,-197.5 901,-197.5 901,-197.5 895,-197.5 889,-191.5 889,-185.5 889,-185.5 889,-158.5 889,-158.5 889,-152.5 895,-146.5 901,-146.5 901,-146.5 1019,-146.5 1019,-146.5 1025,-146.5 1031,-152.5 1031,-158.5 1031,-158.5 1031,-185.5 1031,-185.5 1031,-191.5 1025,-197.5 1019,-197.5"/>
<text text-anchor="middle" x="960" y="-181.9" font-family="Arial" font-size="12.00">Tier 4</text>
<text text-anchor="middle" x="960" y="-168.9" font-family="Arial" font-size="12.00">upstream_sync.py</text>
<text text-anchor="middle" x="960" y="-155.9" font-family="Arial" font-size="12.00">AWS Bedrock Fallback</text>
</g>
<!-- D&#45;&gt;T4 -->
<g id="edge7" class="edge">
<title>D&#45;&gt;T4</title>
<path fill="none" stroke="#666666" stroke-width="1.2" d="M757.71,-148.62C757.71,-148.62 880.55,-148.62 880.55,-148.62"/>
<polygon fill="#666666" stroke="#666666" stroke-width="1.2" points="880.55,-151.43 888.55,-148.62 880.55,-145.83 880.55,-151.43"/>
</g>
<!-- F -->
<g id="node9" class="node">
<title>F</title>
<path fill="#f7f7f7" stroke="#444444" d="M1028,-110C1028,-110 892,-110 892,-110 886,-110 880,-104 880,-98 880,-98 880,-84 880,-84 880,-78 886,-72 892,-72 892,-72 1028,-72 1028,-72 1034,-72 1040,-78 1040,-84 1040,-84 1040,-98 1040,-98 1040,-104 1034,-110 1028,-110"/>
<text text-anchor="middle" x="960" y="-94.4" font-family="Arial" font-size="12.00">Fallback Stub</text>
<text text-anchor="middle" x="960" y="-81.4" font-family="Arial" font-size="12.00">Safe Controlled Response</text>
</g>
<!-- D&#45;&gt;F -->
<g id="edge8" class="edge">
<title>D&#45;&gt;F</title>
<path fill="none" stroke="#666666" stroke-width="1.2" d="M757.5,-126.83C814.12,-126.83 885,-126.83 885,-126.83 885,-126.83 885,-118.18 885,-118.18"/>
<polygon fill="#666666" stroke="#666666" stroke-width="1.2" points="887.8,-118.18 885,-110.18 882.2,-118.18 887.8,-118.18"/>
</g>
<!-- M -->
<g id="node11" class="node">
<title>M</title>
<path fill="#eef6ff" stroke="#444444" d="M1022,-36C1022,-36 898,-36 898,-36 892,-36 886,-30 886,-24 886,-24 886,-12 886,-12 886,-6 892,0 898,0 898,0 1022,0 1022,0 1028,0 1034,-6 1034,-12 1034,-12 1034,-24 1034,-24 1034,-30 1028,-36 1022,-36"/>
<text text-anchor="middle" x="960" y="-14.9" font-family="Arial" font-size="12.00">Metrics / Health Logging</text>
</g>
<!-- D&#45;&gt;M -->
<g id="edge12" class="edge">
<title>D&#45;&gt;M</title>
<path fill="none" stroke="#666666" stroke-width="1.2" d="M689,-116.78C689,-83.34 689,-18 689,-18 689,-18 877.95,-18 877.95,-18"/>
<polygon fill="#666666" stroke="#666666" stroke-width="1.2" points="877.95,-20.8 885.95,-18 877.95,-15.2 877.95,-20.8"/>
</g>
<!-- S -->
<g id="node10" class="node">
<title>S</title>
<path fill="#eef6ff" stroke="#444444" d="M1236,-284.5C1236,-284.5 1145,-284.5 1145,-284.5 1139,-284.5 1133,-278.5 1133,-272.5 1133,-272.5 1133,-245.5 1133,-245.5 1133,-239.5 1139,-233.5 1145,-233.5 1145,-233.5 1236,-233.5 1236,-233.5 1242,-233.5 1248,-239.5 1248,-245.5 1248,-245.5 1248,-272.5 1248,-272.5 1248,-278.5 1242,-284.5 1236,-284.5"/>
<text text-anchor="middle" x="1190.5" y="-268.9" font-family="Arial" font-size="12.00">Session State</text>
<text text-anchor="middle" x="1190.5" y="-255.9" font-family="Arial" font-size="12.00">cwd, history, files,</text>
<text text-anchor="middle" x="1190.5" y="-242.9" font-family="Arial" font-size="12.00">uptime, processes</text>
</g>
<!-- T2&#45;&gt;S -->
<g id="edge9" class="edge">
<title>T2&#45;&gt;S</title>
<path fill="none" stroke="#666666" stroke-width="1.2" d="M1052,-312.45C1052,-312.45 1052,-271.75 1052,-271.75 1052,-271.75 1124.97,-271.75 1124.97,-271.75"/>
<polygon fill="#666666" stroke="#666666" stroke-width="1.2" points="1049.2,-312.45 1052,-320.45 1054.8,-312.45 1049.2,-312.45"/>
<polygon fill="#666666" stroke="#666666" stroke-width="1.2" points="1124.97,-274.55 1132.97,-271.75 1124.97,-268.95 1124.97,-274.55"/>
</g>
<!-- T3&#45;&gt;S -->
<g id="edge10" class="edge">
<title>T3&#45;&gt;S</title>
<path fill="none" stroke="#666666" stroke-width="1.2" d="M1027.06,-259C1027.06,-259 1124.79,-259 1124.79,-259"/>
<polygon fill="#666666" stroke="#666666" stroke-width="1.2" points="1124.79,-261.8 1132.79,-259 1124.79,-256.2 1124.79,-261.8"/>
<polygon fill="#666666" stroke="#666666" stroke-width="1.2" points="1027.06,-256.2 1019.06,-259 1027.06,-261.8 1027.06,-256.2"/>
</g>
<!-- T4&#45;&gt;S -->
<g id="edge11" class="edge">
<title>T4&#45;&gt;S</title>
<path fill="none" stroke="#666666" stroke-width="1.2" d="M1025,-205.55C1025,-205.55 1025,-246.25 1025,-246.25 1025,-246.25 1124.62,-246.25 1124.62,-246.25"/>
<polygon fill="#666666" stroke="#666666" stroke-width="1.2" points="1027.8,-205.55 1025,-197.55 1022.2,-205.55 1027.8,-205.55"/>
<polygon fill="#666666" stroke="#666666" stroke-width="1.2" points="1124.62,-249.05 1132.62,-246.25 1124.62,-243.45 1124.62,-249.05"/>
</g>
<!-- V -->
<g id="node12" class="node">
<title>V</title>
<path fill="#eef6ff" stroke="#444444" d="M1247,-36C1247,-36 1134,-36 1134,-36 1128,-36 1122,-30 1122,-24 1122,-24 1122,-12 1122,-12 1122,-6 1128,0 1134,0 1134,0 1247,0 1247,0 1253,0 1259,-6 1259,-12 1259,-12 1259,-24 1259,-24 1259,-30 1253,-36 1247,-36"/>
<text text-anchor="middle" x="1190.5" y="-14.9" font-family="Arial" font-size="12.00">Monitoring Dashboard</text>
</g>
<!-- M&#45;&gt;V -->
<g id="edge13" class="edge">
<title>M&#45;&gt;V</title>
<path fill="none" stroke="#666666" stroke-width="1.2" d="M1034.2,-18C1034.2,-18 1113.91,-18 1113.91,-18"/>
<polygon fill="#666666" stroke="#666666" stroke-width="1.2" points="1113.91,-20.8 1121.91,-18 1113.91,-15.2 1113.91,-20.8"/>
</g>
<!-- P1 -->
<g id="node13" class="node">
<title>P1</title>
<path fill="#fff8e7" stroke="#444444" d="M786,-443C786,-443 591,-443 591,-443 585,-443 579,-437 579,-431 579,-431 579,-419 579,-419 579,-413 585,-407 591,-407 591,-407 786,-407 786,-407 792,-407 798,-413 798,-419 798,-419 798,-431 798,-431 798,-437 792,-443 786,-443"/>
<text text-anchor="middle" x="688.5" y="-421.9" font-family="Arial" font-size="12.00">Fast / Common / Invariant Commands</text>
</g>
<!-- P1&#45;&gt;T1 -->
<g id="edge14" class="edge">
<title>P1&#45;&gt;T1</title>
<path fill="none" stroke="#666666" stroke-width="1.2" d="M798.15,-431.17C798.15,-431.17 858.94,-431.17 858.94,-431.17"/>
<polygon fill="#666666" stroke="#666666" stroke-width="1.2" points="858.94,-433.97 866.94,-431.17 858.94,-428.37 858.94,-433.97"/>
</g>
<!-- P2 -->
<g id="node14" class="node">
<title>P2</title>
<path fill="#fff8e7" stroke="#444444" d="M738.5,-371C738.5,-371 638.5,-371 638.5,-371 632.5,-371 626.5,-365 626.5,-359 626.5,-359 626.5,-347 626.5,-347 626.5,-341 632.5,-335 638.5,-335 638.5,-335 738.5,-335 738.5,-335 744.5,-335 750.5,-341 750.5,-347 750.5,-347 750.5,-359 750.5,-359 750.5,-365 744.5,-371 738.5,-371"/>
<text text-anchor="middle" x="688.5" y="-349.9" font-family="Arial" font-size="12.00">Stateful Commands</text>
</g>
<!-- P2&#45;&gt;T2 -->
<g id="edge15" class="edge">
<title>P2&#45;&gt;T2</title>
<path fill="none" stroke="#666666" stroke-width="1.2" d="M750.79,-353C750.79,-353 847.96,-353 847.96,-353"/>
<polygon fill="#666666" stroke="#666666" stroke-width="1.2" points="847.96,-355.8 855.96,-353 847.96,-350.2 847.96,-355.8"/>
</g>
<!-- P3 -->
<g id="node15" class="node">
<title>P3</title>
<path fill="#fff8e7" stroke="#444444" d="M769,-299C769,-299 608,-299 608,-299 602,-299 596,-293 596,-287 596,-287 596,-275 596,-275 596,-269 602,-263 608,-263 608,-263 769,-263 769,-263 775,-263 781,-269 781,-275 781,-275 781,-287 781,-287 781,-293 775,-299 769,-299"/>
<text text-anchor="middle" x="688.5" y="-277.9" font-family="Arial" font-size="12.00">Complex Unknown Commands</text>
</g>
<!-- P3&#45;&gt;T3 -->
<g id="edge16" class="edge">
<title>P3&#45;&gt;T3</title>
<path fill="none" stroke="#666666" stroke-width="1.2" d="M781.18,-273.75C781.18,-273.75 892.9,-273.75 892.9,-273.75"/>
<polygon fill="#666666" stroke="#666666" stroke-width="1.2" points="892.9,-276.55 900.9,-273.75 892.9,-270.95 892.9,-276.55"/>
</g>
<!-- P4 -->
<g id="node16" class="node">
<title>P4</title>
<path fill="#fff8e7" stroke="#444444" d="M768,-227C768,-227 609,-227 609,-227 603,-227 597,-221 597,-215 597,-215 597,-203 597,-203 597,-197 603,-191 609,-191 609,-191 768,-191 768,-191 774,-191 780,-197 780,-203 780,-203 780,-215 780,-215 780,-221 774,-227 768,-227"/>
<text text-anchor="middle" x="688.5" y="-205.9" font-family="Arial" font-size="12.00">Escalation Only When Needed</text>
</g>
<!-- P4&#45;&gt;T4 -->
<g id="edge17" class="edge">
<title>P4&#45;&gt;T4</title>
<path fill="none" stroke="#666666" stroke-width="1.2" d="M780.28,-212.25C835.43,-212.25 895,-212.25 895,-212.25 895,-212.25 895,-205.72 895,-205.72"/>
<polygon fill="#666666" stroke="#666666" stroke-width="1.2" points="897.8,-205.72 895,-197.72 892.2,-205.72 897.8,-205.72"/>
</g>
</g>
</svg>
